# Apple ModelIO OBJ File: arrow4
mtllib arrow4.mtl
g 
v 0.02 -0.00999999 0.02
v 0.02 0.00999999 0.02
v 0.02 0.00999999 -0.02
v 0.02 -0.00999999 -0.02
v 0.06 -0.00999999 2.98023e-08
v 0.06 0.00999999 2.98023e-08
vn -1 0 0
vn 0 -1 0
vn 0 1 1.085e-08
vn 0.447214 3.01976e-09 -0.894427
vn 0.447214 -3.01976e-09 0.894427
vt -0.116829 0.103344
vt -0.117991 0.104972
vt -0.114736 0.107297
vt -0.113574 0.105669
vt 0.0154715 -0.0607424
vt 0.0117045 -0.059397
vt 0.0149333 -0.0563027
vt -0.0117045 -0.059397
vt -0.0154715 -0.0607424
vt -0.0149333 -0.0563027
vt -0.144029 0.0585282
vt -0.145682 0.0596535
vt -0.143166 0.0633507
vt -0.141512 0.0622255
vt 0.163865 0.0138729
vt 0.165782 0.00983226
vt 0.163974 0.00897515
vt 0.162058 0.0130158
usemtl material_1
f 1/1/1 2/2/1 3/3/1 4/4/1 
f 1/5/2 4/6/2 5/7/2 
f 3/8/3 2/9/3 6/10/3 
f 4/11/4 3/12/4 6/13/4 5/14/4 
f 6/15/5 2/16/5 1/17/5 5/18/5 
s off
g _1
v 0.02 0.00999999 -0.00999999
v 0.02 0.00999999 0.00999999
v 0.02 -0.00999999 0.00999999
v 0.02 -0.00999999 -0.00999999
v -0.1 -0.00999999 0.00999999
v -0.1 0.00999999 0.00999999
v -0.1 0.00999999 -0.00999999
v -0.1 -0.00999999 -0.00999999
vn 1 0 0
vn -1 0 0
vn 0 -1 0
vn 0 1 0
vn 0 0 -1
vn 0 0 1
vt 0.11555 0.106715
vt 0.117178 0.105553
vt 0.116015 0.103925
vt 0.114388 0.105088
vt -0.116015 0.103925
vt -0.117178 0.105553
vt -0.11555 0.106715
vt -0.114388 0.105088
vt 0.0145297 -0.060406
vt 0.0104937 -0.0717069
vt 0.00861021 -0.0710342
vt 0.0126463 -0.0597334
vt -0.00861021 -0.0710342
vt -0.0104937 -0.0717069
vt -0.0145297 -0.060406
vt -0.0126463 -0.0597334
vt -0.164575 0.0107331
vt -0.166363 0.0116276
vt -0.160997 0.0223607
vt -0.159208 0.0214663
vt 0.160997 0.0223607
vt 0.166363 0.0116276
vt 0.164575 0.0107331
vt 0.159208 0.0214663
usemtl material_2
f 7/19/6 8/20/6 9/21/6 10/22/6 
f 11/23/7 12/24/7 13/25/7 14/26/7 
f 9/27/8 11/28/8 14/29/8 10/30/8 
f 13/31/9 12/32/9 8/33/9 7/34/9 
f 14/35/10 13/36/10 7/37/10 10/38/10 
f 8/39/11 12/40/11 11/41/11 9/42/11 
s off
