# Apple ModelIO OBJ File: ground_lines2
mtllib ground_lines2.mtl
g 
v 1.90274 0.099977 3.12965
v 2.16589 0.099977 3.12965
v 2.16589 0.099977 2.9734
v 1.90274 0.099977 2.9734
v 2.42905 0.099977 3.12965
v 2.69221 0.099977 3.12965
v 2.69221 0.099977 2.9734
v 2.42905 0.099977 2.9734
v 3.48168 0.099977 3.12965
v 3.74484 0.099977 3.12965
v 3.74484 0.099977 2.9734
v 3.48168 0.099977 2.9734
v -3.62358 0.099977 3.12965
v -3.36042 0.099977 3.12965
v -3.36042 0.099977 2.9734
v -3.62358 0.099977 2.9734
v -3.09726 0.099977 3.12965
v -2.83411 0.099977 3.12965
v -2.83411 0.099977 2.9734
v -3.09726 0.099977 2.9734
v -2.04463 0.099977 3.12965
v -1.78147 0.099977 3.12965
v -1.78147 0.099977 2.9734
v -2.04463 0.099977 2.9734
v -1.51832 0.099977 3.12965
v -1.25516 0.099977 3.12965
v -1.25516 0.099977 2.9734
v -1.51832 0.099977 2.9734
v -0.465685 0.099977 3.12965
v -0.202527 0.099977 3.12965
v -0.202527 0.099977 2.9734
v -0.465685 0.099977 2.9734
v 0.060631 0.099977 3.12965
v 0.323789 0.099977 3.12965
v 0.323789 0.099977 2.9734
v 0.060631 0.099977 2.9734
v 1.11326 0.099977 3.12965
v 1.37642 0.099977 3.12965
v 1.37642 0.099977 2.9734
v 1.11326 0.099977 2.9734
v 1.63958 0.099977 3.12965
v 1.63958 0.099977 2.9734
v 2.95537 0.099977 3.12965
v 2.95537 0.099977 2.9734
v 3.21853 0.099977 3.12965
v 3.21853 0.099977 2.9734
v 0.850104 0.099977 3.12965
v 0.850104 0.099977 2.9734
v 0.586946 0.099977 3.12965
v 0.586946 0.099977 2.9734
v -0.728843 0.099977 3.12965
v -0.728843 0.099977 2.9734
v -0.992001 0.099977 3.12965
v -0.992001 0.099977 2.9734
v -2.30779 0.099977 3.12965
v -2.30779 0.099977 2.9734
v -2.57095 0.099977 3.12965
v -2.57095 0.099977 2.9734
v -3.88674 0.099977 3.12965
v -3.88674 0.099977 2.9734
v -4.91937 0.099977 -0.870345
v -4.67621 0.099977 -0.870345
v -4.67621 0.099977 -1.02659
v -4.88937 0.099977 -1.02659
v -3.88674 0.099977 -0.870345
v -3.62358 0.099977 -0.870345
v -3.62358 0.099977 -1.02659
v -3.88674 0.099977 -1.02659
v -3.36042 0.099977 -0.870345
v -3.09726 0.099977 -0.870345
v -3.09726 0.099977 -1.02659
v -3.36042 0.099977 -1.02659
v -2.30779 0.099977 -0.870345
v -2.04463 0.099977 -0.870345
v -2.04463 0.099977 -1.02659
v -2.30779 0.099977 -1.02659
v -1.78147 0.099977 -0.870345
v -1.51832 0.099977 -0.870345
v -1.51832 0.099977 -1.02659
v -1.78147 0.099977 -1.02659
v -0.728843 0.099977 -0.870345
v -0.465685 0.099977 -0.870345
v -0.465685 0.099977 -1.02659
v -0.728843 0.099977 -1.02659
v -0.202527 0.099977 -0.870345
v 0.060631 0.099977 -0.870345
v 0.060631 0.099977 -1.02659
v -0.202527 0.099977 -1.02659
v 0.850104 0.099977 -0.870345
v 1.11326 0.099977 -0.870345
v 1.11326 0.099977 -1.02659
v 0.850104 0.099977 -1.02659
v 4.79747 0.099977 -0.870345
v 4.92063 0.099977 -0.870345
v 4.89063 0.099977 -1.02659
v 4.79747 0.099977 -1.02659
v 3.74484 0.099977 -0.870345
v 4.008 0.099977 -0.870345
v 4.008 0.099977 -1.02659
v 3.74484 0.099977 -1.02659
v 3.21853 0.099977 -0.870345
v 3.48168 0.099977 -0.870345
v 3.48168 0.099977 -1.02659
v 3.21853 0.099977 -1.02659
v 2.16589 0.099977 -0.870345
v 2.42905 0.099977 -0.870345
v 2.42905 0.099977 -1.02659
v 2.16589 0.099977 -1.02659
v 1.63958 0.099977 -0.870345
v 1.90274 0.099977 -0.870345
v 1.90274 0.099977 -1.02659
v 1.63958 0.099977 -1.02659
v 0.586946 0.099977 -0.870345
v 0.586946 0.099977 -1.02659
v 0.323789 0.099977 -0.870345
v 0.323789 0.099977 -1.02659
v -0.992001 0.099977 -0.870345
v -0.992001 0.099977 -1.02659
v -1.25516 0.099977 -0.870345
v -1.25516 0.099977 -1.02659
v -2.57095 0.099977 -0.870345
v -2.57095 0.099977 -1.02659
v -2.83411 0.099977 -0.870345
v -2.83411 0.099977 -1.02659
v -4.1499 0.099977 -0.870345
v -4.1499 0.099977 -1.02659
v -4.41305 0.099977 -0.870345
v -4.41305 0.099977 -1.02659
v 4.53432 0.099977 -0.870345
v 4.53432 0.099977 -1.02659
v 4.27116 0.099977 -0.870345
v 4.27116 0.099977 -1.02659
v 2.95537 0.099977 -0.870345
v 2.95537 0.099977 -1.02659
v 2.69221 0.099977 -0.870345
v 2.69221 0.099977 -1.02659
v 1.37642 0.099977 -0.870345
v 1.37642 0.099977 -1.02659
v 1.90274 0.099977 -3.87035
v 2.16589 0.099977 -3.87035
v 2.16589 0.099977 -4.0266
v 1.90274 0.099977 -4.0266
v 2.42905 0.099977 -3.87035
v 2.69221 0.099977 -3.87035
v 2.69221 0.099977 -4.0266
v 2.42905 0.099977 -4.0266
v -3.09726 0.099977 -3.87035
v -2.83411 0.099977 -3.87035
v -2.83411 0.099977 -4.0266
v -2.95726 0.099977 -4.0266
v -2.04463 0.099977 -3.87035
v -1.78147 0.099977 -3.87035
v -1.78147 0.099977 -4.0266
v -2.04463 0.099977 -4.0266
v -1.51832 0.099977 -3.87035
v -1.25516 0.099977 -3.87035
v -1.25516 0.099977 -4.0266
v -1.51832 0.099977 -4.0266
v -0.465685 0.099977 -3.87035
v -0.202527 0.099977 -3.87035
v -0.202527 0.099977 -4.0266
v -0.465685 0.099977 -4.0266
v 0.060631 0.099977 -3.87035
v 0.323789 0.099977 -3.87035
v 0.323789 0.099977 -4.0266
v 0.060631 0.099977 -4.0266
v 1.11326 0.099977 -3.87035
v 1.37642 0.099977 -3.87035
v 1.37642 0.099977 -4.0266
v 1.11326 0.099977 -4.0266
v 1.63958 0.099977 -3.87035
v 1.63958 0.099977 -4.0266
v 2.95537 0.099977 -3.87035
v 2.95537 0.099977 -4.0266
v 0.850104 0.099977 -3.87035
v 0.850104 0.099977 -4.0266
v 0.586946 0.099977 -3.87035
v 0.586946 0.099977 -4.0266
v -0.728843 0.099977 -3.87035
v -0.728843 0.099977 -4.0266
v -0.992001 0.099977 -3.87035
v -0.992001 0.099977 -4.0266
v -2.30779 0.099977 -3.87035
v -2.30779 0.099977 -4.0266
v -2.57095 0.099977 -3.87035
v -2.57095 0.099977 -4.0266
vn 0 1 0
usemtl material_1
f 1//1 2//1 3//1 4//1 
f 5//1 6//1 7//1 8//1 
f 9//1 10//1 11//1 12//1 
f 13//1 14//1 15//1 16//1 
f 17//1 18//1 19//1 20//1 
f 21//1 22//1 23//1 24//1 
f 25//1 26//1 27//1 28//1 
f 29//1 30//1 31//1 32//1 
f 33//1 34//1 35//1 36//1 
f 37//1 38//1 39//1 40//1 
f 41//1 1//1 4//1 42//1 
f 6//1 43//1 44//1 7//1 
f 45//1 9//1 12//1 46//1 
f 47//1 37//1 40//1 48//1 
f 34//1 49//1 50//1 35//1 
f 51//1 29//1 32//1 52//1 
f 26//1 53//1 54//1 27//1 
f 55//1 21//1 24//1 56//1 
f 18//1 57//1 58//1 19//1 
f 59//1 13//1 16//1 60//1 
f 61//1 62//1 63//1 64//1 
f 65//1 66//1 67//1 68//1 
f 69//1 70//1 71//1 72//1 
f 73//1 74//1 75//1 76//1 
f 77//1 78//1 79//1 80//1 
f 81//1 82//1 83//1 84//1 
f 85//1 86//1 87//1 88//1 
f 89//1 90//1 91//1 92//1 
f 93//1 94//1 95//1 96//1 
f 97//1 98//1 99//1 100//1 
f 101//1 102//1 103//1 104//1 
f 105//1 106//1 107//1 108//1 
f 109//1 110//1 111//1 112//1 
f 113//1 89//1 92//1 114//1 
f 86//1 115//1 116//1 87//1 
f 117//1 81//1 84//1 118//1 
f 78//1 119//1 120//1 79//1 
f 121//1 73//1 76//1 122//1 
f 70//1 123//1 124//1 71//1 
f 125//1 65//1 68//1 126//1 
f 62//1 127//1 128//1 63//1 
f 129//1 93//1 96//1 130//1 
f 98//1 131//1 132//1 99//1 
f 133//1 101//1 104//1 134//1 
f 106//1 135//1 136//1 107//1 
f 137//1 109//1 112//1 138//1 
f 139//1 140//1 141//1 142//1 
f 143//1 144//1 145//1 146//1 
f 147//1 148//1 149//1 150//1 
f 151//1 152//1 153//1 154//1 
f 155//1 156//1 157//1 158//1 
f 159//1 160//1 161//1 162//1 
f 163//1 164//1 165//1 166//1 
f 167//1 168//1 169//1 170//1 
f 171//1 139//1 142//1 172//1 
f 144//1 173//1 174//1 145//1 
f 175//1 167//1 170//1 176//1 
f 164//1 177//1 178//1 165//1 
f 179//1 159//1 162//1 180//1 
f 156//1 181//1 182//1 157//1 
f 183//1 151//1 154//1 184//1 
f 148//1 185//1 186//1 149//1 
s off
g _1
v 2.34173 0.1 0.795306
v 2.2045 0.1 0.928564
v 2.2045 0.1 0.788564
v 1.95868 0.1 3.42435
v 2.081 0.1 3.4425
v 1.93137 0.1 3.56166
v 2.47763 0.1 0.815466
v 2.328 0.1 0.934632
v 2.081 0.1 0.934631
v 2.06727 0.1 0.795305
v 2.6109 0.1 0.848849
v 2.45031 0.1 0.952775
v 3.28671 0.1 3.07671
v 3.17849 0.1 2.9879
v 3.25215 0.1 2.88858
v 2.74026 0.1 0.895134
v 2.57026 0.1 0.98282
v 1.93137 0.1 0.815465
v 1.66874 0.1 0.895133
v 1.7981 0.1 0.848848
v 1.83874 0.1 0.982819
v 1.72232 0.1 1.02448
v 1.95868 0.1 0.952774
v 0.831398 0.1 2.46169
v 0.811238 0.1 2.32579
v 0.950563 0.1 2.31207
v 1.54454 0.1 0.953874
v 1.61054 0.1 1.07734
v 2.86445 0.1 0.953876
v 2.9823 0.1 1.02451
v 2.79846 0.1 1.07735
v 1.4267 0.1 1.02451
v 2.68668 0.1 1.02448
v 1.50448 0.1 1.14091
v 3.09265 0.1 1.10635
v 2.90452 0.1 1.14091
v 3.36859 0.1 1.70638
v 3.31572 0.1 1.59461
v 3.43919 0.1 1.52861
v 2.86445 0.1 3.42325
v 2.79846 0.1 3.29978
v 2.90452 0.1 3.23622
v 1.40516 0.1 1.21457
v 1.31635 0.1 1.10635
v 3.19445 0.1 1.19862
v 3.09545 0.1 1.29761
v 2.9823 0.1 3.35262
v 1.31354 0.1 1.29761
v 1.21455 0.1 1.19861
v 3.28671 0.1 1.30042
v 2.74026 0.1 3.482
v 1.12228 0.1 1.30041
v 1.2305 0.1 1.38923
v 3.17849 0.1 1.38923
v 1.04044 0.1 1.41077
v 3.36856 0.1 1.41077
v 3.25215 0.1 1.48855
v 1.15684 0.1 1.48854
v 2.68668 0.1 3.35265
v 0.969807 0.1 1.52861
v 1.09328 0.1 1.5946
v 3.00383 0.1 3.16256
v 1.04041 0.1 1.70638
v 3.49793 0.1 1.65281
v 1.31635 0.1 3.27078
v 1.21455 0.1 3.17851
v 1.31354 0.1 3.07952
v 0.86478 0.1 1.78217
v 0.911066 0.1 1.65281
v 3.54421 0.1 1.78217
v 3.41024 0.1 1.82281
v 0.998752 0.1 1.82281
v 3.45843 0.1 2.06506
v 3.44029 0.1 1.94275
v 3.5776 0.1 1.91544
v 0.831398 0.1 1.91544
v 0.968708 0.1 1.94275
v 0.86478 0.1 2.59496
v 0.968708 0.1 2.43438
v 0.950563 0.1 2.06506
v 3.59775 0.1 2.05134
v 2.328 0.1 3.4425
v 2.34172 0.1 3.58182
v 2.2045 0.1 3.58856
v 3.5776 0.1 2.46169
v 3.44029 0.1 2.43438
v 3.45843 0.1 2.31207
v 0.804497 0.1 2.18856
v 0.811238 0.1 2.05134
v 3.6045 0.1 2.18857
v 0.944497 0.1 2.18856
v 3.4645 0.1 2.18857
v 3.00383 0.1 1.21457
v 3.59775 0.1 2.32579
v 1.83874 0.1 3.39431
v 3.41024 0.1 2.55432
v 0.998752 0.1 2.55432
v 3.54421 0.1 2.59496
v 3.36859 0.1 2.67074
v 1.04041 0.1 2.67074
v 0.911066 0.1 2.72432
v 3.49793 0.1 2.72432
v 3.43919 0.1 2.84852
v 1.09328 0.1 2.78252
v 0.969807 0.1 2.84852
v 3.36856 0.1 2.96636
v 3.31572 0.1 2.78252
v 1.15684 0.1 2.88858
v 1.04044 0.1 2.96636
v 1.2305 0.1 2.9879
v 1.12228 0.1 3.07671
v 3.09545 0.1 3.07952
v 3.19445 0.1 3.17851
v 3.09265 0.1 3.27078
v 1.40516 0.1 3.16256
v 1.50448 0.1 3.23622
v 1.4267 0.1 3.35262
v 1.54454 0.1 3.42325
v 2.47762 0.1 3.56166
v 2.45031 0.1 3.42435
v 2.57026 0.1 3.39431
v 1.72232 0.1 3.35265
v 1.61054 0.1 3.29978
v 1.66874 0.1 3.482
v 1.7981 0.1 3.52828
v 2.6109 0.1 3.52828
v 2.2045 0.1 3.44856
v 2.06727 0.1 3.58182
vn 0 -1 0
usemtl material_2
f 187//2 188//2 189//2
f 190//2 191//2 192//2
f 193//2 194//2 187//2
f 188//2 195//2 196//2
f 197//2 198//2 193//2
f 199//2 200//2 201//2
f 202//2 203//2 197//2
f 195//2 204//2 196//2
f 188//2 196//2 189//2
f 203//2 198//2 197//2
f 205//2 206//2 207//2
f 194//2 188//2 187//2
f 205//2 207//2 208//2
f 198//2 194//2 193//2
f 209//2 207//2 204//2
f 195//2 209//2 204//2
f 210//2 211//2 212//2
f 213//2 205//2 214//2
f 215//2 216//2 217//2
f 218//2 213//2 214//2
f 219//2 202//2 217//2
f 214//2 220//2 218//2
f 221//2 222//2 216//2
f 223//2 224//2 225//2
f 226//2 227//2 228//2
f 220//2 229//2 230//2
f 231//2 232//2 221//2
f 233//2 226//2 228//2
f 220//2 230//2 218//2
f 229//2 234//2 235//2
f 236//2 232//2 231//2
f 226//2 237//2 227//2
f 222//2 217//2 216//2
f 238//2 234//2 239//2
f 240//2 232//2 236//2
f 241//2 238//2 239//2
f 242//2 243//2 236//2
f 241//2 239//2 244//2
f 237//2 245//2 227//2
f 246//2 241//2 244//2
f 225//2 224//2 242//2
f 246//2 244//2 247//2
f 233//2 228//2 248//2
f 247//2 249//2 246//2
f 250//2 223//2 225//2
f 202//2 215//2 217//2
f 251//2 252//2 253//2
f 254//2 255//2 249//2
f 256//2 257//2 250//2
f 254//2 249//2 258//2
f 259//2 260//2 261//2
f 262//2 254//2 258//2
f 261//2 260//2 256//2
f 262//2 258//2 263//2
f 264//2 210//2 265//2
f 263//2 266//2 262//2
f 267//2 259//2 261//2
f 268//2 269//2 270//2
f 271//2 272//2 273//2
f 274//2 275//2 266//2
f 259//2 267//2 276//2
f 274//2 266//2 277//2
f 278//2 259//2 276//2
f 277//2 212//2 274//2
f 232//2 279//2 221//2
f 273//2 278//2 276//2
f 273//2 276//2 280//2
f 265//2 210//2 212//2
f 280//2 271//2 273//2
f 266//2 275//2 262//2
f 281//2 190//2 192//2
f 282//2 272//2 271//2
f 283//2 264//2 265//2
f 282//2 271//2 284//2
f 224//2 243//2 242//2
f 285//2 282//2 284//2
f 286//2 287//2 283//2
f 285//2 284//2 288//2
f 243//2 240//2 236//2
f 288//2 289//2 285//2
f 287//2 286//2 290//2
f 207//2 206//2 204//2
f 291//2 287//2 290//2
f 289//2 292//2 293//2
f 291//2 290//2 294//2
f 287//2 264//2 283//2
f 295//2 291//2 294//2
f 292//2 199//2 201//2
f 295//2 294//2 296//2
f 260//2 257//2 256//2
f 297//2 295//2 296//2
f 298//2 200//2 199//2
f 297//2 296//2 253//2
f 298//2 199//2 299//2
f 252//2 297//2 253//2
f 299//2 300//2 298//2
f 301//2 251//2 253//2
f 249//2 255//2 246//2
f 302//2 303//2 301//2
f 303//2 302//2 304//2
f 300//2 233//2 248//2
f 292//2 201//2 293//2
f 205//2 208//2 214//2
f 234//2 238//2 235//2
f 303//2 251//2 301//2
f 305//2 306//2 307//2
f 308//2 304//2 309//2
f 279//2 222//2 221//2
f 229//2 235//2 230//2
f 302//2 309//2 304//2
f 281//2 310//2 308//2
f 203//2 202//2 219//2
f 212//2 211//2 274//2
f 237//2 307//2 245//2
f 310//2 304//2 308//2
f 268//2 305//2 269//2
f 311//2 310//2 281//2
f 312//2 305//2 307//2
f 191//2 313//2 314//2
f 289//2 293//2 285//2
f 237//2 312//2 307//2
f 305//2 268//2 306//2
f 257//2 223//2 250//2
f 311//2 281//2 192//2
f 313//2 268//2 270//2
f 192//2 191//2 314//2
f 314//2 313//2 270//2
f 300//2 248//2 298//2
s off
g _2
v -0.345348 -2 -5.48914
v 0 -2 -5
v 0 -2 -5.5
v 2.64964 -2 -4.81969
v 2.34178 -2 -4.97655
v 2.40876 -2 -4.38154
v -0.689333 -2 -5.45663
v -0.626666 -2 -4.96057
v 0.313942 -2 -4.99013
v 0.345337 -2 -5.48914
v -1.0306 -2 -5.40258
v 4.91144 -2 -0.936912
v 5.40258 -2 -1.0306
v 5.32721 -2 -1.3678
v -1.36779 -2 -5.32721
v -1.24345 -2 -4.84291
v 0.689322 -2 -5.45663
v 0.626656 -2 -4.96057
v -1.69959 -2 -5.23081
v 1.03059 -2 -5.40258
v -2.02468 -2 -5.11377
v -1.54508 -2 -4.75528
v 3.50583 -2 -4.23783
v 3.18711 -2 -3.85257
v 3.42273 -2 -3.64485
v 1.69958 -2 -5.23081
v 1.36778 -2 -5.32721
v 1.54508 -2 -4.75528
v -0.313953 -2 -4.99013
v 0.936897 -2 -4.91144
v 4.22163 -2 -2.67914
v 4.6438 -2 -2.94705
v 4.44959 -2 -3.23283
v 2.02467 -2 -5.11377
v -2.34179 -2 -4.97655
v -2.64965 -2 -4.81968
v -2.1289 -2 -4.52413
v 1.84061 -2 -4.64888
v 2.02469 -2 5.11377
v 2.34179 -2 4.97655
v 1.84063 -2 4.64888
v 2.12889 -2 -4.52414
v 1.24344 -2 -4.84292
v -0.936907 -2 -4.91143
v 4.38153 -2 -2.40877
v -5 -2 4e-06
v -4.99013 -2 -0.313949
v -5.48915 -2 -0.345344
v -0.936902 -2 4.91144
v -1.24345 -2 4.84292
v -1.03059 -2 5.40258
v -1.84062 -2 -4.64888
v -4.00933 -2 -3.76501
v -4.23782 -2 -3.50583
v -3.85257 -2 -3.18712
v -2.64964 -2 4.81969
v -2.34178 -2 4.97655
v -2.12889 -2 4.52414
v 2.94704 -2 -4.64381
v 2.67913 -2 -4.22164
v -2.94705 -2 -4.6438
v -3.23282 -2 -4.44959
v -2.67913 -2 -4.22164
v 3.23281 -2 -4.4496
v -3.50583 -2 -4.23782
v -2.93893 -2 -4.04508
v 3.23283 -2 4.44959
v 2.67914 -2 4.22164
v 2.94705 -2 4.6438
v -2.94704 -2 4.64381
v -2.40877 -2 4.38154
v 2.93892 -2 -4.04509
v 5.32721 -2 1.36779
v 5.40258 -2 1.03059
v 4.91144 -2 0.936902
v -3.18712 -2 -3.85256
v 3.765 -2 -4.00933
v -3.64484 -2 -3.42273
v -3.76501 -2 -4.00933
v 3.76501 -2 4.00933
v 4.00933 -2 3.76501
v 3.42274 -2 3.64484
v 4.4496 -2 3.23282
v 4.64381 -2 2.94704
v 4.04509 -2 2.93892
v 3.64484 -2 -3.42274
v 4.00932 -2 -3.76501
v -5.45663 -2 0.689337
v -4.96057 -2 0.62667
v -4.99013 -2 0.313956
v -3.50583 -2 4.23783
v -2.93892 -2 4.04509
v -3.18712 -2 3.85257
v -0.313948 -2 4.99014
v -0.345342 -2 5.48915
v 6e-06 -2 5.5
v -4.75528 -2 -1.54508
v -4.64888 -2 -1.84062
v -5.11377 -2 -2.02468
v -4.44959 -2 -3.23282
v -4.04508 -2 -2.93892
v -1.36779 -2 5.32721
v 3.85256 -2 -3.18712
v 4.04508 -2 -2.93893
v -4.64381 -2 -2.94705
v -4.22164 -2 -2.67913
v -3.42274 -2 -3.64484
v 5 -2 -6e-06
v 5.5 -2 -6e-06
v 5.48915 -2 -0.345354
v -4.81969 -2 -2.64964
v -4.44959 -2 3.23282
v -3.85256 -2 3.18712
v -4.04508 -2 2.93893
v 4.23783 -2 3.50583
v 3.85257 -2 3.18712
v 4.81968 -2 -2.64965
v -4.38153 -2 -2.40877
v 4.97654 -2 -2.34179
v -4.97655 -2 -2.34178
v 4.52413 -2 -2.1289
v -4.52414 -2 -2.12889
v 4.64888 -2 -1.84063
v 4.81969 -2 2.64964
v 4.97655 -2 2.34178
v 4.52414 -2 2.12889
v 5.11377 -2 -2.02469
v 4.75528 -2 -1.54509
v -5.23081 -2 -1.69959
v -4.6438 -2 2.94705
v -4.22164 -2 2.67914
v -4.38153 -2 2.40877
v -4.96057 -2 -0.626663
v -5.45663 -2 -0.689329
v 5.23081 -2 -1.6996
v -5.32721 -2 -1.36779
v -4.84292 -2 -1.24345
v 4.84291 -2 -1.24346
v 1.3678 -2 5.32721
v 1.6996 -2 5.23081
v 1.54509 -2 4.75528
v -5.40258 -2 -1.03059
v 0.689339 -2 5.45663
v 1.0306 -2 5.40258
v 0.936912 -2 4.91144
v -4.91144 -2 -0.936903
v 5.45663 -2 -0.689339
v 4.96057 -2 -0.626672
v 4.99013 -2 -0.313958
v -5.5 -2 4e-06
v -3.42273 -2 3.64485
v -3.76501 -2 4.00933
v 5.48915 -2 0.345342
v 4.99013 -2 0.313947
v -5.48915 -2 0.345352
v 4.96058 -2 0.626661
v 5.45663 -2 0.689327
v -4.91144 -2 0.936911
v -5.40258 -2 1.0306
v 4.84292 -2 1.24345
v -4.84292 -2 1.24345
v -5.32721 -2 1.3678
v 4.75528 -2 1.54508
v -4.75528 -2 1.54509
v 5.23081 -2 1.69959
v -5.23081 -2 1.6996
v 4.64888 -2 1.84062
v -4.64888 -2 1.84063
v 5.11377 -2 2.02468
v -5.11377 -2 2.02469
v -4.52413 -2 2.1289
v -4.97655 -2 2.34179
v 4.38154 -2 2.40877
v -4.81968 -2 2.64965
v 4.22164 -2 2.67913
v -4.00933 -2 3.76501
v -3.64484 -2 3.42274
v 4.23782 -2 -3.50584
v -4.23782 -2 3.50584
v 3.64485 -2 3.42273
v 2.64965 -2 4.81968
v 2.40877 -2 4.38153
v 3.18712 -2 3.85256
v 3.50584 -2 4.23782
v 2.93893 -2 4.04508
v -1.69959 -2 5.23081
v -1.54508 -2 4.75529
v -1.84062 -2 4.64889
v -3.23282 -2 4.4496
v -2.40877 -2 -4.38153
v 2.1289 -2 4.52414
v -2.67913 -2 4.22164
v 1.24346 -2 4.84292
v -2.02468 -2 5.11377
v 0.626672 -2 4.96058
v 0.313958 -2 4.99014
v 5e-06 -2 5
v -0.626661 -2 4.96058
v -0.689327 -2 5.45663
v 0.345354 -2 5.48915
vn 0 1 -0
usemtl material_3
f 315//3 316//3 317//3
f 318//3 319//3 320//3
f 321//3 322//3 315//3
f 316//3 323//3 324//3
f 325//3 322//3 321//3
f 326//3 327//3 328//3
f 329//3 330//3 325//3
f 331//3 324//3 332//3
f 333//3 330//3 329//3
f 334//3 331//3 332//3
f 335//3 336//3 333//3
f 337//3 338//3 339//3
f 316//3 324//3 317//3
f 336//3 330//3 333//3
f 340//3 341//3 342//3
f 343//3 316//3 315//3
f 341//3 334//3 344//3
f 345//3 346//3 347//3
f 348//3 340//3 342//3
f 349//3 350//3 351//3
f 348//3 342//3 352//3
f 353//3 354//3 355//3
f 319//3 348//3 352//3
f 319//3 352//3 356//3
f 341//3 344//3 357//3
f 358//3 322//3 325//3
f 324//3 323//3 332//3
f 346//3 345//3 359//3
f 360//3 361//3 362//3
f 363//3 364//3 365//3
f 366//3 335//3 351//3
f 367//3 368//3 369//3
f 370//3 371//3 372//3
f 373//3 318//3 374//3
f 375//3 376//3 377//3
f 378//3 373//3 374//3
f 379//3 380//3 376//3
f 381//3 382//3 383//3
f 384//3 370//3 385//3
f 350//3 375//3 377//3
f 380//3 377//3 376//3
f 337//3 386//3 338//3
f 387//3 388//3 389//3
f 322//3 343//3 315//3
f 380//3 379//3 390//3
f 391//3 337//3 339//3
f 367//3 392//3 393//3
f 394//3 395//3 396//3
f 397//3 398//3 399//3
f 339//3 400//3 401//3
f 402//3 403//3 404//3
f 405//3 406//3 407//3
f 408//3 409//3 410//3
f 411//3 412//3 413//3
f 414//3 415//3 368//3
f 364//3 416//3 365//3
f 400//3 417//3 401//3
f 417//3 418//3 347//3
f 419//3 420//3 414//3
f 390//3 379//3 421//3
f 339//3 401//3 391//3
f 422//3 423//3 424//3
f 425//3 420//3 419//3
f 426//3 427//3 428//3
f 429//3 397//3 430//3
f 431//3 346//3 359//3
f 432//3 420//3 425//3
f 433//3 431//3 359//3
f 432//3 425//3 434//3
f 433//3 359//3 435//3
f 436//3 432//3 434//3
f 435//3 437//3 433//3
f 413//3 412//3 434//3
f 438//3 439//3 440//3
f 437//3 441//3 433//3
f 437//3 442//3 441//3
f 443//3 411//3 413//3
f 444//3 445//3 446//3
f 361//3 447//3 448//3
f 328//3 449//3 442//3
f 450//3 451//3 443//3
f 328//3 442//3 452//3
f 453//3 454//3 455//3
f 452//3 326//3 328//3
f 451//3 450//3 456//3
f 457//3 458//3 459//3
f 460//3 451//3 456//3
f 461//3 327//3 326//3
f 448//3 447//3 456//3
f 461//3 326//3 462//3
f 341//3 357//3 342//3
f 424//3 461//3 462//3
f 362//3 361//3 448//3
f 424//3 462//3 463//3
f 318//3 320//3 374//3
f 463//3 422//3 424//3
f 464//3 360//3 362//3
f 420//3 415//3 414//3
f 465//3 466//3 405//3
f 467//3 423//3 422//3
f 467//3 422//3 468//3
f 404//3 360//3 464//3
f 404//3 464//3 469//3
f 467//3 468//3 470//3
f 469//3 402//3 404//3
f 471//3 467//3 470//3
f 451//3 411//3 443//3
f 471//3 470//3 389//3
f 472//3 403//3 402//3
f 388//3 471//3 389//3
f 472//3 402//3 473//3
f 474//3 387//3 389//3
f 475//3 472//3 473//3
f 319//3 356//3 320//3
f 475//3 473//3 476//3
f 387//3 474//3 477//3
f 478//3 475//3 476//3
f 479//3 387//3 477//3
f 478//3 476//3 480//3
f 479//3 477//3 481//3
f 482//3 478//3 480//3
f 483//3 479//3 481//3
f 482//3 480//3 484//3
f 483//3 481//3 440//3
f 485//3 482//3 484//3
f 439//3 483//3 440//3
f 485//3 484//3 486//3
f 487//3 438//3 440//3
f 446//3 485//3 486//3
f 415//3 369//3 368//3
f 446//3 486//3 488//3
f 438//3 487//3 489//3
f 488//3 444//3 446//3
f 398//3 438//3 489//3
f 490//3 491//3 427//3
f 398//3 489//3 399//3
f 428//3 445//3 444//3
f 430//3 397//3 399//3
f 444//3 426//3 428//3
f 417//3 347//3 492//3
f 493//3 490//3 427//3
f 494//3 429//3 430//3
f 426//3 493//3 427//3
f 395//3 429//3 494//3
f 392//3 421//3 393//3
f 396//3 395//3 494//3
f 354//3 495//3 496//3
f 374//3 386//3 378//3
f 447//3 460//3 456//3
f 497//3 394//3 396//3
f 490//3 466//3 465//3
f 418//3 345//3 347//3
f 498//3 394//3 497//3
f 499//3 498//3 497//3
f 407//3 465//3 405//3
f 490//3 465//3 491//3
f 500//3 501//3 502//3
f 382//3 381//3 499//3
f 405//3 503//3 406//3
f 381//3 498//3 499//3
f 504//3 350//3 377//3
f 382//3 496//3 383//3
f 503//3 384//3 406//3
f 505//3 354//3 496//3
f 351//3 350//3 504//3
f 330//3 358//3 325//3
f 384//3 385//3 506//3
f 355//3 354//3 505//3
f 386//3 337//3 378//3
f 495//3 383//3 496//3
f 370//3 372//3 385//3
f 455//3 353//3 355//3
f 384//3 506//3 406//3
f 507//3 453//3 455//3
f 371//3 502//3 372//3
f 336//3 335//3 366//3
f 371//3 508//3 502//3
f 459//3 453//3 507//3
f 508//3 500//3 502//3
f 509//3 457//3 459//3
f 417//3 492//3 401//3
f 510//3 457//3 509//3
f 364//3 500//3 416//3
f 454//3 353//3 455//3
f 500//3 364//3 501//3
f 442//3 449//3 441//3
f 334//3 332//3 344//3
f 511//3 408//3 410//3
f 512//3 365//3 513//3
f 408//3 512//3 513//3
f 510//3 511//3 514//3
f 408//3 513//3 409//3
f 458//3 453//3 459//3
f 512//3 363//3 365//3
f 412//3 436//3 434//3
f 335//3 349//3 351//3
f 457//3 510//3 514//3
f 379//3 393//3 421//3
f 514//3 511//3 410//3
f 392//3 367//3 369//3
s off
g _3
v -0.313953 -2 -4.99013
v -0.626666 -2 -4.96057
v -0.936907 -2 -4.91143
v -1.24345 -2 -4.84291
v -1.54508 -2 -4.75528
v -1.84062 -2 -4.64888
v -2.1289 -2 -4.52413
v -2.40877 -2 -4.38153
v -2.67913 -2 -4.22164
v -2.93893 -2 -4.04508
v -3.18712 -2 -3.85256
v -3.42274 -2 -3.64484
v -3.64484 -2 -3.42273
v -3.85257 -2 -3.18712
v -4.04508 -2 -2.93892
v -4.22164 -2 -2.67913
v -4.38153 -2 -2.40877
v -4.52414 -2 -2.12889
v -4.64888 -2 -1.84062
v -4.75528 -2 -1.54508
v -4.84292 -2 -1.24345
v -4.91144 -2 -0.936903
v -4.96057 -2 -0.626663
v -4.99013 -2 -0.313949
v -5 -2 4e-06
v -4.99013 -2 0.313956
v -4.96057 -2 0.62667
v -4.91144 -2 0.936911
v -4.84292 -2 1.24345
v -4.75528 -2 1.54509
v -4.64888 -2 1.84063
v -4.52413 -2 2.1289
v -4.38153 -2 2.40877
v -4.22164 -2 2.67914
v -4.04508 -2 2.93893
v -3.85256 -2 3.18712
v -3.64484 -2 3.42274
v -3.42273 -2 3.64485
v -3.18712 -2 3.85257
v -2.93892 -2 4.04509
v -2.67913 -2 4.22164
v -2.40877 -2 4.38154
v -2.12889 -2 4.52414
v -1.84062 -2 4.64889
v -1.54508 -2 4.75529
v -1.24345 -2 4.84292
v -0.936902 -2 4.91144
v -0.626661 -2 4.96058
v -0.313948 -2 4.99014
v 5e-06 -2 5
v 0.313958 -2 4.99014
v 0.626672 -2 4.96058
v 0.936912 -2 4.91144
v 1.24346 -2 4.84292
v 1.54509 -2 4.75528
v 1.84063 -2 4.64888
v 2.1289 -2 4.52414
v 2.40877 -2 4.38153
v 2.67914 -2 4.22164
v 2.93893 -2 4.04508
v 3.18712 -2 3.85256
v 3.42274 -2 3.64484
v 3.64485 -2 3.42273
v 3.85257 -2 3.18712
v 4.04509 -2 2.93892
v 4.22164 -2 2.67913
v 4.38154 -2 2.40877
v 4.52414 -2 2.12889
v 4.64888 -2 1.84062
v 4.75528 -2 1.54508
v 4.84292 -2 1.24345
v 4.91144 -2 0.936902
v 4.96058 -2 0.626661
v 4.99013 -2 0.313947
v 5 -2 -6e-06
v 4.99013 -2 -0.313958
v 4.96057 -2 -0.626672
v 4.91144 -2 -0.936912
v 4.84291 -2 -1.24346
v 4.75528 -2 -1.54509
v 4.64888 -2 -1.84063
v 4.52413 -2 -2.1289
v 4.38153 -2 -2.40877
v 4.22163 -2 -2.67914
v 4.04508 -2 -2.93893
v 3.85256 -2 -3.18712
v 3.64484 -2 -3.42274
v 3.42273 -2 -3.64485
v 3.18711 -2 -3.85257
v 2.93892 -2 -4.04509
v 2.67913 -2 -4.22164
v 2.40876 -2 -4.38154
v 2.12889 -2 -4.52414
v 1.84061 -2 -4.64888
v 1.54508 -2 -4.75528
v 1.24344 -2 -4.84292
v 0.936897 -2 -4.91144
v 0.626656 -2 -4.96057
v 0.313942 -2 -4.99013
v 0 -2 -5
vn 0 1 -0
usemtl material_4
f 515//4 516//4 517//4 518//4 519//4 520//4 521//4 522//4 523//4 524//4 525//4 526//4 527//4 528//4 529//4 530//4 531//4 532//4 533//4 534//4 535//4 536//4 537//4 538//4 539//4 540//4 541//4 542//4 543//4 544//4 545//4 546//4 547//4 548//4 549//4 550//4 551//4 552//4 553//4 554//4 555//4 556//4 557//4 558//4 559//4 560//4 561//4 562//4 563//4 564//4 565//4 566//4 567//4 568//4 569//4 570//4 571//4 572//4 573//4 574//4 575//4 576//4 577//4 578//4 579//4 580//4 581//4 582//4 583//4 584//4 585//4 586//4 587//4 588//4 589//4 590//4 591//4 592//4 593//4 594//4 595//4 596//4 597//4 598//4 599//4 600//4 601//4 602//4 603//4 604//4 605//4 606//4 607//4 608//4 609//4 610//4 611//4 612//4 613//4 614//4 
s off
